<svg width="48" height="48" viewBox="0 0 48 48" fill="none" xmlns="http://www.w3.org/2000/svg">
<g clip-path="url(#clip0)">
<path d="M6.23256 18.5174C5.89218 18.2783 5.4219 18.3599 5.18235 18.7007C4.10564 20.2326 3.53638 22.0331 3.53638 23.908C3.53638 24.3242 3.87381 24.6616 4.29 24.6616C4.70618 24.6616 5.04362 24.3242 5.04362 23.908C5.04362 22.3452 5.51794 20.8442 6.41581 19.5673C6.655 19.2269 6.57294 18.757 6.23256 18.5174Z" fill="#002F3E" stroke="white" stroke-width="0.2"/>
<path d="M15.6642 21.4318C15.6642 21.8084 15.9625 22.1136 16.3306 22.1136C16.6986 22.1136 16.997 21.8084 16.997 21.4318C16.9268 19.5292 15.513 17.962 13.6649 17.7384V17.6818C13.6649 17.3053 13.3665 17 12.9985 17C12.6304 17 12.3321 17.3053 12.3321 17.6818V17.7384C10.484 17.962 9.07016 19.5292 9 21.4318C9.07016 23.3345 10.484 24.9016 12.3321 25.1252V29.87C11.2222 29.6743 10.3924 28.7189 10.3328 27.5682C10.3328 27.1916 10.0345 26.8864 9.66642 26.8864C9.29836 26.8864 9 27.1916 9 27.5682C9.07016 29.4708 10.484 31.038 12.3321 31.2616V31.3182C12.3321 31.6947 12.6304 32 12.9985 32C13.3665 32 13.6649 31.6947 13.6649 31.3182V31.2616C15.548 31.1088 17 29.5008 17 27.5682C17 25.6355 15.548 24.0275 13.6649 23.8748V19.13C14.7748 19.3257 15.6046 20.2811 15.6642 21.4318ZM10.3328 21.4318C10.3924 20.2811 11.2222 19.3257 12.3321 19.13V23.7336C11.2222 23.5379 10.3924 22.5825 10.3328 21.4318ZM15.6642 27.5682C15.6046 28.7189 14.7748 29.6743 13.6649 29.87V25.2664C14.7748 25.4621 15.6046 26.4175 15.6642 27.5682Z" fill="#002F3E" stroke="white" stroke-width="0.2"/>
<path d="M8.82747 17.3561C9.18735 17.1475 9.31026 16.6864 9.10161 16.3261C8.8926 15.9662 8.43152 15.8433 8.07127 16.052C7.82178 16.197 7.57597 16.3556 7.34046 16.5241C7.00229 16.7662 6.92428 17.2369 7.16641 17.5754C7.3136 17.7811 7.54506 17.8904 7.77983 17.8904C7.93181 17.8904 8.08525 17.8448 8.21809 17.7498C8.41423 17.6093 8.61919 17.4768 8.82747 17.3561Z" fill="#002F3E" stroke="white" stroke-width="0.2"/>
<path d="M34.6505 14.5425H35.9628C36.0588 14.5425 36.1479 14.491 36.1961 14.4082L42.1014 4.23066C42.2059 4.05109 42.0756 3.82588 41.8685 3.82588H40.5559C40.4602 3.82588 40.3708 3.87703 40.3229 3.96019L34.4176 14.1378C34.3135 14.3166 34.443 14.5425 34.6505 14.5425Z" fill="#002F3E" stroke="white" stroke-width="0.2"/>
<path d="M35.483 8.57723C36.6741 8.57723 37.8804 7.72904 37.8804 6.10735C37.8804 4.49561 36.6734 3.6522 35.4815 3.6522C34.2896 3.6522 33.0837 4.49561 33.0837 6.10735C33.0834 7.72904 34.2904 8.57723 35.483 8.57723ZM35.4819 5.02071C36.0191 5.02071 36.2914 5.38648 36.2914 6.10735C36.2914 6.51876 36.1862 7.20835 35.4819 7.20835C34.7904 7.20835 34.687 6.51839 34.687 6.10735C34.687 5.38648 34.9546 5.02071 35.4819 5.02071Z" fill="#002F3E" stroke="white" stroke-width="0.2"/>
<path d="M38.6533 12.2603C38.6533 13.4813 39.482 14.7173 41.0662 14.7173C42.6408 14.7173 43.4643 13.4817 43.4643 12.2607C43.4643 11.0401 42.6404 9.8037 41.0662 9.8037C39.482 9.8037 38.6533 11.0397 38.6533 12.2603ZM41.861 12.2607C41.861 12.6611 41.7558 13.3326 41.0518 13.3326C40.3475 13.3326 40.2423 12.6611 40.2423 12.2607C40.2423 11.5395 40.5146 11.1741 41.0518 11.1741C41.5887 11.1741 41.861 11.5395 41.861 12.2607Z" fill="#002F3E" stroke="white" stroke-width="0.2"/>
<path d="M38.274 29.6315C34.7919 29.6315 31.7564 31.5792 30.1995 34.4421L23.0121 30.0606C24.0833 28.2567 24.7008 26.1534 24.7008 23.908C24.7008 21.7185 24.1127 19.6652 23.0909 17.8922L30.1995 13.5582C31.7564 16.4211 34.7919 18.3688 38.274 18.3688C43.3382 18.3688 47.4584 14.2489 47.4584 9.18439C47.4584 4.11989 43.3382 0 38.274 0C32.011 0 27.532 6.18941 29.5886 12.165L22.26 16.633C20.051 13.7109 16.5486 11.8184 12.6116 11.8184C5.94525 11.8184 0.521973 17.2417 0.521973 23.9076C0.521973 30.5739 5.94525 35.9972 12.6116 35.9972C16.4915 35.9972 19.9479 34.1576 22.1617 31.3069L29.5886 35.8349C29.2666 36.7707 29.0896 37.7723 29.0896 38.8155C29.0896 43.88 33.2095 47.9999 38.274 47.9999C43.3382 47.9999 47.4584 43.88 47.4584 38.8155C47.4584 33.7518 43.3382 29.6315 38.274 29.6315ZM38.274 1.50761C42.5069 1.50761 45.9512 4.95152 45.9512 9.18476C45.9512 13.418 42.5073 16.8619 38.274 16.8619C34.0408 16.8619 30.5969 13.418 30.5969 9.18476C30.5969 4.95152 34.0408 1.50761 38.274 1.50761ZM12.6116 34.4899C6.77614 34.4899 2.02921 29.743 2.02921 23.908C2.02921 18.0729 6.77614 13.3256 12.6116 13.3256C18.4462 13.3256 23.1935 18.0729 23.1935 23.908C23.1935 29.743 18.4462 34.4899 12.6116 34.4899ZM38.274 46.493C34.0408 46.493 30.5969 43.0491 30.5969 38.8159C30.5969 34.583 34.0408 31.1387 38.274 31.1387C42.5069 31.1387 45.9512 34.5827 45.9512 38.8159C45.9512 43.0491 42.5073 46.493 38.274 46.493Z" fill="#002F3E" stroke="white" stroke-width="0.2"/>
<path d="M41.8684 33.4566H40.5558C40.4602 33.4566 40.3711 33.5082 40.3229 33.591L34.4176 43.7685C34.3134 43.9477 34.4433 44.1737 34.6505 44.1737H35.9627C36.0588 44.1737 36.1482 44.1222 36.196 44.039L42.1013 33.8614C42.2058 33.6822 42.0756 33.4566 41.8684 33.4566Z" fill="#002F3E" stroke="white" stroke-width="0.2"/>
<path d="M37.8803 35.7385C37.8803 34.1267 36.6733 33.2833 35.481 33.2833C34.2895 33.2833 33.0833 34.1267 33.0833 35.7385C33.0833 37.3601 34.2902 38.2087 35.4829 38.2087C36.674 38.2087 37.8803 37.3601 37.8803 35.7385ZM34.6869 35.7385C34.6869 35.0176 34.9541 34.6522 35.4814 34.6522C36.0186 34.6522 36.2909 35.0176 36.2909 35.7385C36.2909 36.1499 36.1861 36.8395 35.4814 36.8395C34.7899 36.8395 34.6869 36.1495 34.6869 35.7385Z" fill="#002F3E" stroke="white" stroke-width="0.2"/>
<path d="M41.0662 39.4352C39.482 39.4352 38.6533 40.6708 38.6533 41.8918C38.6533 43.1124 39.482 44.3488 41.0662 44.3488C42.6408 44.3488 43.4643 43.1127 43.4643 41.8921C43.4647 40.6708 42.6408 39.4352 41.0662 39.4352ZM41.0518 42.9637C40.3475 42.9637 40.2423 42.2921 40.2423 41.8918C40.2423 41.1709 40.5146 40.8051 41.0518 40.8051C41.5887 40.8051 41.861 41.1709 41.861 41.8918C41.861 42.2921 41.7558 42.9637 41.0518 42.9637Z" fill="#002F3E" stroke="white" stroke-width="0.2"/>
</g>
<defs>
<clipPath id="clip0">
<rect width="48" height="48" fill="white"/>
</clipPath>
</defs>
</svg>
