<svg width="48" height="50" viewBox="0 0 48 50" fill="none" xmlns="http://www.w3.org/2000/svg">
<path d="M46.0906 49C45.8574 49 45.6242 48.8996 45.4457 48.7009L33.1598 34.081C32.8046 33.6816 32.8046 33.0322 33.1598 32.6328C33.515 32.2334 34.0925 32.2334 34.4477 32.6328L46.7336 47.2527C47.0888 47.6522 47.0888 48.3015 46.7336 48.7009C46.5569 48.8996 46.3237 49 46.0906 49Z" fill="#002F3E" stroke="white" stroke-width="0.5"/>
<path d="M26.7582 15.5286C26.7582 15.5286 27.7465 14.0603 30.5702 13.6199C31.1287 13.5328 33.9587 21.2545 33.9587 21.695C32.4056 23.0163 30.1467 23.31 30.1467 23.31L29.89 22.7227M26.7582 15.5286L27.4642 16.9968M26.7582 15.5286C25.4876 14.6476 22.5509 12.9445 20.9697 13.1794C20.5283 13.245 19.9812 13.5229 19.4166 13.9298M28.3951 19.3459L29.89 22.7227M27.7465 24.7782L20.9697 17.7309C19.8402 18.465 18.146 20.8141 16.593 19.3459C15.3759 18.1953 17.4531 15.3449 19.4166 13.9298M27.7465 24.7782C28.3113 24.7782 29.5717 23.5449 29.89 22.7227M27.7465 24.7782C28.0289 27.1273 25.77 26.2464 25.77 26.2464M19.4166 13.9298C18.0048 13.7667 16.4518 13.6199 14.6164 14.0604C14.4947 14.0784 14.3517 14.0587 14.1928 14.0107M9.81609 13.3262L10.3808 12.1517C11.1237 11.8942 13.7693 13.1794 14.1928 14.0107M14.1928 14.0107L11.1785 21.1077M9.06676 16.4324C9.06676 16.4324 7.27483 19.3458 6.99243 20.2268C7.2748 20.5204 9.53375 22.1354 10.8044 21.9886L11.1785 21.1077M11.1785 21.1077C12.9363 23.9462 19.4167 31.3851 21.2521 28.7423M21.2521 28.7423L18.146 25.5123M21.2521 28.7423C21.8168 29.2317 23.3698 30.0637 23.6522 27.7146M23.6522 27.7146L20.2638 24.0441M23.6522 27.7146C24.3581 28.4487 26.6171 28.5955 25.77 26.2464M25.77 26.2464L21.6756 21.9886" stroke="#002F3E" stroke-width="1.4" stroke-linecap="round"/>
<path d="M19.9762 39.4083C9.51334 39.4083 1 30.7927 1 20.2042C1 9.61559 9.51334 1 19.9762 1C30.4391 1 38.9525 9.61559 38.9525 20.2042C38.9525 30.7927 30.4391 39.4083 19.9762 39.4083ZM19.9762 3.02149C10.614 3.02149 2.9975 10.7294 2.9975 20.2042C2.9975 29.6789 10.614 37.3868 19.9762 37.3868C29.3385 37.3868 36.955 29.6789 36.955 20.2042C36.955 10.7294 29.3385 3.02149 19.9762 3.02149Z" fill="#002F3E" stroke="white" stroke-width="0.5"/>
</svg>
